<svg width="173" height="88" viewBox="0 0 173 88" fill="none" xmlns="http://www.w3.org/2000/svg">
<rect x="6" y="6" width="161" height="78" fill="white"/>
<path d="M165 0C169.418 0 173 3.58172 173 8V80C173 84.4183 169.418 88 165 88H8C3.58172 88 1.28855e-07 84.4183 0 80V8C0 3.58172 3.58172 0 8 0H165ZM11 6C8.79086 6 7 7.79086 7 10V78C7 80.2091 8.79086 82 11 82H21.1904C23.3996 82 25.1904 80.2091 25.1904 78V24.8604C25.1904 22.6513 26.9815 20.8605 29.1904 20.8604H64.8486C67.0578 20.8604 68.8486 22.6512 68.8486 24.8604V46H37.8887C34.4404 46.0002 32.6086 50.0714 34.8955 52.6523L43.7559 62.6523C44.515 63.5091 45.6053 64 46.75 64H68.8486V78C68.8486 80.2091 70.6395 82 72.8486 82H82C84.2091 82 86 80.2091 86 78V10C86 7.79086 84.2091 6 82 6H11ZM102 6C99.7909 6 98 7.79086 98 10V19.1123C98 21.3214 99.7909 23.1123 102 23.1123H119.373C121.582 23.1123 123.373 24.9033 123.373 27.1123V60.791C123.373 62.993 121.593 64.7809 119.392 64.791L101.982 64.8691C99.7804 64.879 98.0002 66.6672 98 68.8691V78C98 80.2091 99.7909 82 102 82H162C164.209 82 166 80.2091 166 78V68.8877C166 66.6786 164.209 64.8877 162 64.8877H145.135C142.926 64.8877 141.135 63.0967 141.135 60.8877V27.1123C141.135 24.9033 142.926 23.1123 145.135 23.1123H162C164.209 23.1123 166 21.3214 166 19.1123V10C166 7.79086 164.209 6 162 6H102Z" fill="#ED5B00"/>
</svg>
